# xmcd
#
# Track frame offsets:
#	150
#	14993
#	33903
#	48584
#	66409
#	84072
#	102819
#	120265
#	134241
#	153205
#
# Disc length: 2262 seconds
#
# Revision: 15
# Processed by: cddbd v1.5.2PL0 Copyright (c) Steve Scherf et al.
# Submitted via: EasyCDDAExtractor 12.0.4.1
#
DISCID=8008d40a
DTITLE=MOTE ปราโมทย์ วิเลปะนะ - LOVE COVER
DYEAR=2010
DGENRE=Pop
TTITLE0=แสนรัก
TTITLE1=ฤดูที่ฉันเหงา
TTITLE2=เผลอ
TTITLE3=ดาว
TTITLE4=ดินแดนแห่งความรัก
TTITLE5=ลมหนาว
TTITLE6=หยุด
TTITLE7=ความลับ
TTITLE8=ยื้อ
TTITLE9=เอื้อมไม่ถึง
EXTD=
EXTT0=
EXTT1=
EXTT2=
EXTT3=
EXTT4=
EXTT5=
EXTT6=
EXTT7=
EXTT8=
EXTT9=
PLAYORDER=
